<?xml version="1.0" standalone="no"?>
<!DOCTYPE svg PUBLIC "-//W3C//DTD SVG 20010904//EN"
 "http://www.w3.org/TR/2001/REC-SVG-20010904/DTD/svg10.dtd">
<svg version="1.0" xmlns="http://www.w3.org/2000/svg"
 width="1254.000000pt" height="1254.000000pt" viewBox="0 0 1254.000000 1254.000000"
 preserveAspectRatio="xMidYMid meet">

<g transform="translate(0.000000,1254.000000) scale(0.100000,-0.100000)"
fill="#000000" stroke="none">
<path d="M2648 8323 c6 -2 18 -2 25 0 6 3 1 5 -13 5 -14 0 -19 -2 -12 -5z"/>
<path d="M6350 8273 c-395 -60 -724 -332 -951 -785 -156 -310 -239 -692 -239
-1093 0 -616 165 -1126 470 -1457 355 -385 939 -482 1367 -226 84 50 226 189
289 284 168 252 233 624 141 804 -59 115 -189 121 -262 13 -15 -21 -61 -92
-105 -158 -116 -178 -221 -276 -349 -327 -44 -17 -77 -22 -151 -23 -88 0 -101
3 -162 33 -190 93 -317 369 -369 802 -20 166 -18 542 4 675 85 513 283 825
523 825 120 0 203 -50 299 -181 98 -134 138 -158 241 -146 100 11 234 110 275
202 67 150 8 356 -146 509 -141 142 -345 231 -585 256 -122 12 -173 11 -290
-7z"/>
<path d="M3839 8250 c-129 -23 -212 -104 -381 -375 -478 -765 -825 -1759 -933
-2675 -22 -186 -31 -561 -16 -673 20 -147 68 -226 163 -267 104 -44 314 -13
507 76 135 62 182 127 188 259 21 469 81 969 129 1070 34 73 108 115 273 156
221 56 341 56 371 -1 6 -12 16 -92 21 -178 37 -643 66 -771 200 -901 50 -48
153 -101 249 -127 90 -25 312 -26 391 -2 138 43 229 165 204 277 -4 17 -23 54
-42 83 -102 148 -150 408 -213 1148 -62 732 -120 1162 -200 1475 -85 335 -141
429 -311 524 -152 85 -469 154 -600 131z m202 -856 c14 -23 21 -100 38 -379
38 -641 37 -587 10 -618 -29 -33 -80 -44 -256 -53 -203 -10 -236 14 -213 156
35 215 273 824 354 905 31 31 45 29 67 -11z"/>
<path d="M8290 8223 c-198 -15 -442 -60 -514 -93 -56 -27 -101 -77 -115 -127
-24 -86 -6 -3152 19 -3238 16 -54 93 -128 151 -144 64 -19 478 -26 657 -12
482 39 844 146 1142 338 115 74 280 242 343 349 60 101 112 245 128 354 24
168 -4 367 -72 503 -111 221 -293 368 -579 468 l-94 33 40 30 c21 16 80 71
129 121 163 165 242 336 252 539 6 126 -4 195 -43 293 -126 319 -488 535 -978
582 -101 10 -361 12 -466 4z m439 -488 c132 -35 236 -115 287 -222 38 -81 45
-194 16 -290 -55 -179 -232 -352 -421 -409 -106 -32 -145 -12 -155 82 -14 136
-47 732 -43 767 6 41 29 73 62 88 27 12 187 2 254 -16z m105 -1515 c364 -93
524 -384 376 -687 -91 -186 -324 -330 -565 -350 -65 -5 -73 -3 -98 18 -16 14
-32 41 -37 64 -6 22 -13 237 -16 477 -7 403 -6 439 10 463 9 14 27 30 39 36
33 14 202 2 291 -21z"/>
<path d="M10338 4823 c7 -3 16 -2 19 1 4 3 -2 6 -13 5 -11 0 -14 -3 -6 -6z"/>
<path d="M10258 4813 c6 -2 18 -2 25 0 6 3 1 5 -13 5 -14 0 -19 -2 -12 -5z"/>
<path d="M10158 4803 c12 -2 30 -2 40 0 9 3 -1 5 -23 4 -22 0 -30 -2 -17 -4z"/>
<path d="M9973 4793 c20 -2 54 -2 75 0 20 2 3 4 -38 4 -41 0 -58 -2 -37 -4z"/>
<path d="M10640 4719 c-22 -18 -22 -19 -3 -10 12 6 25 16 28 21 9 15 3 12 -25
-11z"/>
<path d="M9639 4673 l-24 -28 28 24 c15 14 27 26 27 28 0 8 -8 1 -31 -24z"/>
<path d="M10709 4653 c-13 -16 -12 -17 4 -4 9 7 17 15 17 17 0 8 -8 3 -21 -13z"/>
<path d="M10068 4523 c6 -2 18 -2 25 0 6 3 1 5 -13 5 -14 0 -19 -2 -12 -5z"/>
<path d="M9439 4503 c-13 -16 -12 -17 4 -4 9 7 17 15 17 17 0 8 -8 3 -21 -13z"/>
<path d="M9945 4459 c-4 -6 -5 -12 -2 -15 2 -3 7 2 10 11 7 17 1 20 -8 4z"/>
<path d="M9364 4438 l-19 -23 23 19 c12 11 22 21 22 23 0 8 -8 2 -26 -19z"/>
<path d="M9299 4383 c-13 -16 -12 -17 4 -4 9 7 17 15 17 17 0 8 -8 3 -21 -13z"/>
<path d="M9262 4254 c13 -22 31 -52 41 -65 10 -13 8 -6 -5 17 -13 22 -31 52
-41 65 -10 13 -8 6 5 -17z"/>
<path d="M5918 4223 c7 -3 16 -2 19 1 4 3 -2 6 -13 5 -11 0 -14 -3 -6 -6z"/>
<path d="M9130 4175 c0 -5 10 -21 21 -35 13 -17 17 -18 10 -5 -17 33 -31 51
-31 40z"/>
<path d="M9433 3965 c9 -16 23 -39 32 -50 9 -11 7 -2 -6 20 -27 49 -47 72 -26
30z"/>
<path d="M9668 3803 c7 -3 16 -2 19 1 4 3 -2 6 -13 5 -11 0 -14 -3 -6 -6z"/>
<path d="M9628 3793 c7 -3 16 -2 19 1 4 3 -2 6 -13 5 -11 0 -14 -3 -6 -6z"/>
<path d="M9120 3670 c-8 -5 -10 -10 -5 -10 6 0 17 5 25 10 8 5 11 10 5 10 -5
0 -17 -5 -25 -10z"/>
<path d="M8748 3553 c7 -3 16 -2 19 1 4 3 -2 6 -13 5 -11 0 -14 -3 -6 -6z"/>
<path d="M8708 3543 c7 -3 16 -2 19 1 4 3 -2 6 -13 5 -11 0 -14 -3 -6 -6z"/>
<path d="M8668 3533 c7 -3 16 -2 19 1 4 3 -2 6 -13 5 -11 0 -14 -3 -6 -6z"/>
<path d="M8488 3503 c7 -3 16 -2 19 1 4 3 -2 6 -13 5 -11 0 -14 -3 -6 -6z"/>
<path d="M8408 3493 c6 -2 18 -2 25 0 6 3 1 5 -13 5 -14 0 -19 -2 -12 -5z"/>
<path d="M8298 3483 c7 -3 16 -2 19 1 4 3 -2 6 -13 5 -11 0 -14 -3 -6 -6z"/>
<path d="M8028 3473 c17 -2 47 -2 65 0 17 2 3 4 -33 4 -36 0 -50 -2 -32 -4z"/>
<path d="M5252 3098 c-16 -16 -15 -53 3 -68 20 -17 54 -3 61 26 11 42 -34 72
-64 42z"/>
<path d="M5416 3094 c-9 -8 -16 -21 -16 -28 0 -15 32 -46 47 -46 13 0 43 33
43 48 0 15 -29 42 -45 42 -7 0 -21 -7 -29 -16z"/>
<path d="M8942 3098 c-7 -7 -12 -25 -12 -40 0 -21 6 -29 25 -34 31 -8 55 10
55 40 0 26 -18 46 -40 46 -9 0 -21 -5 -28 -12z"/>
<path d="M5312 2949 c-114 -15 -190 -100 -199 -224 -13 -163 87 -275 248 -275
170 0 284 143 249 312 -29 136 -143 208 -298 187z m119 -42 c100 -67 121 -287
37 -382 -56 -64 -130 -69 -195 -12 -44 38 -59 74 -68 154 -21 186 106 321 226
240z"/>
<path d="M8296 2948 c-56 -12 -94 -43 -106 -88 -23 -85 6 -127 127 -187 52
-25 101 -55 109 -67 33 -47 1 -116 -61 -132 -61 -15 -139 35 -160 104 -13 45
-26 21 -23 -45 3 -75 -11 -66 126 -79 130 -12 202 36 202 136 0 72 -23 98
-136 155 -113 57 -136 83 -115 132 33 81 153 67 192 -23 11 -24 22 -44 24 -44
3 0 5 29 5 65 0 61 -1 65 -22 64 -13 0 -45 3 -73 8 -27 5 -67 5 -89 1z"/>
<path d="M3715 2724 c-77 -195 -94 -229 -120 -245 l-30 -19 80 0 c77 1 79 1
53 16 -33 17 -34 34 -8 92 l19 42 90 0 91 0 16 -37 c24 -59 23 -85 -6 -100
-22 -11 -13 -13 75 -13 l100 0 -27 23 c-21 16 -50 79 -116 242 -70 174 -92
221 -108 223 -17 2 -32 -28 -109 -224z m123 21 c18 -47 32 -90 32 -95 0 -6
-33 -10 -75 -10 -41 0 -75 2 -75 5 0 2 13 37 28 77 16 40 32 81 35 91 11 31
22 18 55 -68z"/>
<path d="M4347 2943 c-10 -9 -9 -123 1 -123 4 0 14 15 20 34 17 46 31 56 91
63 l51 6 0 -217 0 -216 -32 -14 c-31 -14 -28 -14 72 -15 l105 -1 -33 20 -32
20 2 207 3 208 47 -1 c52 0 79 -18 98 -65 15 -34 35 -39 26 -6 -3 12 -6 41 -6
65 l0 42 -203 0 c-112 0 -207 -3 -210 -7z"/>
<path d="M5970 2938 c0 -4 6 -8 14 -8 33 0 38 -27 37 -212 0 -101 0 -193 -1
-205 0 -14 -11 -28 -27 -37 -26 -14 -13 -15 159 -16 l187 0 6 54 c10 76 2 88
-23 39 -29 -55 -46 -63 -137 -63 l-75 0 2 213 c3 209 3 212 26 222 12 5 22 12
22 16 0 3 -43 5 -95 5 -52 0 -95 -4 -95 -8z"/>
<path d="M6610 2942 c0 -4 10 -12 22 -17 12 -6 57 -66 99 -135 l78 -125 0 -83
1 -82 -32 -20 -33 -20 105 0 105 0 -32 20 -33 20 0 84 0 84 68 118 c41 73 77
123 94 133 16 9 28 18 28 21 0 3 -29 5 -65 5 -36 0 -65 -2 -65 -3 0 -2 9 -11
20 -20 20 -17 19 -18 -31 -107 -28 -49 -54 -94 -59 -98 -11 -12 -124 179 -116
198 3 8 12 15 21 15 8 0 15 4 15 9 0 4 -43 9 -95 9 -52 0 -95 -3 -95 -6z"/>
<path d="M7410 2941 c0 -4 10 -11 23 -16 22 -10 22 -13 25 -223 l2 -212 -27
-13 c-24 -10 1 -12 161 -15 104 -1 190 -1 191 0 2 2 5 31 7 66 4 62 -4 83 -16
39 -3 -13 -18 -36 -33 -51 -25 -25 -31 -27 -112 -24 l-86 3 0 95 0 95 54 3
c55 3 91 -14 91 -45 0 -8 4 -12 9 -9 10 6 11 146 2 146 -3 0 -14 -14 -23 -31
-17 -29 -20 -30 -75 -27 l-58 3 0 95 0 95 69 3 c80 3 106 -9 135 -66 l20 -37
1 68 0 68 -180 -2 c-99 -1 -180 -5 -180 -8z"/>
<path d="M8870 2939 c0 -5 6 -9 14 -9 8 0 22 -7 30 -16 14 -13 16 -47 16 -215
l0 -199 -32 -20 -33 -20 105 0 105 0 -32 20 -33 20 0 205 0 205 25 12 c14 6
25 14 25 18 0 3 -43 7 -95 7 -52 0 -95 -4 -95 -8z"/>
</g>
</svg>
